<mxfile host="app.diagrams.net" agent="Mozilla/5.0 (Windows NT 10.0; Win64; x64) AppleWebKit/537.36 (KHTML, like Gecko) Chrome/133.0.0.0 Safari/537.36" version="26.1.0">
  <diagram name="PÃ¡gina-1" id="L48t4qorQCHT0aebZPwK">
    <mxGraphModel dx="2261" dy="1941" grid="1" gridSize="10" guides="1" tooltips="1" connect="1" arrows="1" fold="1" page="1" pageScale="1" pageWidth="827" pageHeight="1169" math="0" shadow="0">
      <root>
        <mxCell id="0" />
        <mxCell id="1" parent="0" />
        <mxCell id="2Su1z04QFh2XnTSSfZza-90" value="" style="rounded=0;whiteSpace=wrap;html=1;" vertex="1" parent="1">
          <mxGeometry x="357" y="52.5" width="150" height="75" as="geometry" />
        </mxCell>
        <mxCell id="IQvtdIC64HT51uXj9o-3-1" value="usuario&amp;nbsp;" style="rounded=0;whiteSpace=wrap;html=1;" parent="1" vertex="1">
          <mxGeometry x="280" y="320" width="120" height="60" as="geometry" />
        </mxCell>
        <mxCell id="2Su1z04QFh2XnTSSfZza-1" value="" style="endArrow=none;html=1;rounded=0;entryX=0.25;entryY=1;entryDx=0;entryDy=0;exitX=0.633;exitY=-0.012;exitDx=0;exitDy=0;exitPerimeter=0;" edge="1" parent="1" source="2Su1z04QFh2XnTSSfZza-2" target="IQvtdIC64HT51uXj9o-3-1">
          <mxGeometry width="50" height="50" relative="1" as="geometry">
            <mxPoint x="260" y="370" as="sourcePoint" />
            <mxPoint x="440" y="370" as="targetPoint" />
          </mxGeometry>
        </mxCell>
        <mxCell id="2Su1z04QFh2XnTSSfZza-2" value="nombre&amp;nbsp;" style="ellipse;whiteSpace=wrap;html=1;" vertex="1" parent="1">
          <mxGeometry x="70" y="400" width="120" height="80" as="geometry" />
        </mxCell>
        <mxCell id="2Su1z04QFh2XnTSSfZza-3" value="apellido&amp;nbsp;" style="ellipse;whiteSpace=wrap;html=1;" vertex="1" parent="1">
          <mxGeometry x="190" y="420" width="100" height="60" as="geometry" />
        </mxCell>
        <mxCell id="2Su1z04QFh2XnTSSfZza-4" value="correo&amp;nbsp;" style="ellipse;whiteSpace=wrap;html=1;" vertex="1" parent="1">
          <mxGeometry x="294" y="440" width="90" height="50" as="geometry" />
        </mxCell>
        <mxCell id="2Su1z04QFh2XnTSSfZza-5" value="telefono" style="ellipse;whiteSpace=wrap;html=1;" vertex="1" parent="1">
          <mxGeometry x="384" y="430" width="96" height="70" as="geometry" />
        </mxCell>
        <mxCell id="2Su1z04QFh2XnTSSfZza-6" value="" style="endArrow=none;html=1;rounded=0;entryX=0.5;entryY=1;entryDx=0;entryDy=0;exitX=0.5;exitY=0;exitDx=0;exitDy=0;" edge="1" parent="1" source="2Su1z04QFh2XnTSSfZza-3" target="IQvtdIC64HT51uXj9o-3-1">
          <mxGeometry width="50" height="50" relative="1" as="geometry">
            <mxPoint x="390" y="420" as="sourcePoint" />
            <mxPoint x="440" y="370" as="targetPoint" />
          </mxGeometry>
        </mxCell>
        <mxCell id="2Su1z04QFh2XnTSSfZza-7" value="" style="endArrow=none;html=1;rounded=0;" edge="1" parent="1" source="2Su1z04QFh2XnTSSfZza-4" target="IQvtdIC64HT51uXj9o-3-1">
          <mxGeometry width="50" height="50" relative="1" as="geometry">
            <mxPoint x="390" y="420" as="sourcePoint" />
            <mxPoint x="440" y="370" as="targetPoint" />
          </mxGeometry>
        </mxCell>
        <mxCell id="2Su1z04QFh2XnTSSfZza-8" value="" style="endArrow=none;html=1;rounded=0;entryX=0.625;entryY=1.033;entryDx=0;entryDy=0;entryPerimeter=0;exitX=0;exitY=0;exitDx=0;exitDy=0;" edge="1" parent="1" source="2Su1z04QFh2XnTSSfZza-5" target="IQvtdIC64HT51uXj9o-3-1">
          <mxGeometry width="50" height="50" relative="1" as="geometry">
            <mxPoint x="390" y="420" as="sourcePoint" />
            <mxPoint x="440" y="370" as="targetPoint" />
          </mxGeometry>
        </mxCell>
        <mxCell id="2Su1z04QFh2XnTSSfZza-9" value="id&amp;nbsp;" style="ellipse;whiteSpace=wrap;html=1;fontStyle=4" vertex="1" parent="1">
          <mxGeometry x="40" y="330" width="110" height="50" as="geometry" />
        </mxCell>
        <mxCell id="2Su1z04QFh2XnTSSfZza-10" value="" style="endArrow=none;html=1;rounded=0;entryX=0;entryY=0.5;entryDx=0;entryDy=0;" edge="1" parent="1" source="2Su1z04QFh2XnTSSfZza-9" target="IQvtdIC64HT51uXj9o-3-1">
          <mxGeometry width="50" height="50" relative="1" as="geometry">
            <mxPoint x="390" y="420" as="sourcePoint" />
            <mxPoint x="440" y="370" as="targetPoint" />
          </mxGeometry>
        </mxCell>
        <mxCell id="2Su1z04QFh2XnTSSfZza-13" value="direccion" style="ellipse;whiteSpace=wrap;html=1;" vertex="1" parent="1">
          <mxGeometry x="480" y="425" width="100" height="55" as="geometry" />
        </mxCell>
        <mxCell id="2Su1z04QFh2XnTSSfZza-15" value="" style="endArrow=none;html=1;rounded=0;exitX=0.292;exitY=0.038;exitDx=0;exitDy=0;exitPerimeter=0;" edge="1" parent="1" source="2Su1z04QFh2XnTSSfZza-13" target="IQvtdIC64HT51uXj9o-3-1">
          <mxGeometry width="50" height="50" relative="1" as="geometry">
            <mxPoint x="390" y="420" as="sourcePoint" />
            <mxPoint x="440" y="370" as="targetPoint" />
          </mxGeometry>
        </mxCell>
        <mxCell id="2Su1z04QFh2XnTSSfZza-16" value="" style="endArrow=none;html=1;rounded=0;entryX=0.575;entryY=0.083;entryDx=0;entryDy=0;entryPerimeter=0;exitX=0.5;exitY=1;exitDx=0;exitDy=0;" edge="1" parent="1" source="2Su1z04QFh2XnTSSfZza-17" target="IQvtdIC64HT51uXj9o-3-1">
          <mxGeometry width="50" height="50" relative="1" as="geometry">
            <mxPoint x="350" y="260" as="sourcePoint" />
            <mxPoint x="440" y="370" as="targetPoint" />
          </mxGeometry>
        </mxCell>
        <mxCell id="2Su1z04QFh2XnTSSfZza-17" value="tiene&amp;nbsp;" style="rhombus;whiteSpace=wrap;html=1;" vertex="1" parent="1">
          <mxGeometry x="304" y="190" width="80" height="70" as="geometry" />
        </mxCell>
        <mxCell id="2Su1z04QFh2XnTSSfZza-18" value="" style="endArrow=none;html=1;rounded=0;entryX=0.325;entryY=0.143;entryDx=0;entryDy=0;entryPerimeter=0;" edge="1" parent="1" source="2Su1z04QFh2XnTSSfZza-19" target="2Su1z04QFh2XnTSSfZza-17">
          <mxGeometry width="50" height="50" relative="1" as="geometry">
            <mxPoint x="350" y="130" as="sourcePoint" />
            <mxPoint x="440" y="370" as="targetPoint" />
          </mxGeometry>
        </mxCell>
        <mxCell id="2Su1z04QFh2XnTSSfZza-19" value="administrador&amp;nbsp;" style="rounded=0;whiteSpace=wrap;html=1;" vertex="1" parent="1">
          <mxGeometry x="199" y="45" width="120" height="60" as="geometry" />
        </mxCell>
        <mxCell id="2Su1z04QFh2XnTSSfZza-21" value="" style="endArrow=none;html=1;rounded=0;" edge="1" parent="1" source="2Su1z04QFh2XnTSSfZza-17" target="2Su1z04QFh2XnTSSfZza-22">
          <mxGeometry width="50" height="50" relative="1" as="geometry">
            <mxPoint x="360" y="180" as="sourcePoint" />
            <mxPoint x="380" y="130" as="targetPoint" />
          </mxGeometry>
        </mxCell>
        <mxCell id="2Su1z04QFh2XnTSSfZza-22" value="cliente compras" style="rounded=0;whiteSpace=wrap;html=1;" vertex="1" parent="1">
          <mxGeometry x="367" y="67.5" width="120" height="60" as="geometry" />
        </mxCell>
        <mxCell id="2Su1z04QFh2XnTSSfZza-23" value="gestiona" style="rhombus;whiteSpace=wrap;html=1;" vertex="1" parent="1">
          <mxGeometry x="239" y="-100" width="80" height="80" as="geometry" />
        </mxCell>
        <mxCell id="2Su1z04QFh2XnTSSfZza-28" value="" style="endArrow=none;html=1;rounded=0;exitX=0.333;exitY=0.017;exitDx=0;exitDy=0;exitPerimeter=0;" edge="1" parent="1" source="2Su1z04QFh2XnTSSfZza-19" target="2Su1z04QFh2XnTSSfZza-23">
          <mxGeometry width="50" height="50" relative="1" as="geometry">
            <mxPoint x="250" y="50" as="sourcePoint" />
            <mxPoint x="170" y="-10" as="targetPoint" />
          </mxGeometry>
        </mxCell>
        <mxCell id="2Su1z04QFh2XnTSSfZza-29" value="productos y servicios&amp;nbsp;" style="rounded=0;whiteSpace=wrap;html=1;" vertex="1" parent="1">
          <mxGeometry x="90" y="-160" width="120" height="60" as="geometry" />
        </mxCell>
        <mxCell id="2Su1z04QFh2XnTSSfZza-30" value="" style="endArrow=none;html=1;rounded=0;entryX=1;entryY=0.75;entryDx=0;entryDy=0;" edge="1" parent="1" source="2Su1z04QFh2XnTSSfZza-23" target="2Su1z04QFh2XnTSSfZza-29">
          <mxGeometry width="50" height="50" relative="1" as="geometry">
            <mxPoint x="390" y="-80" as="sourcePoint" />
            <mxPoint x="440" y="-130" as="targetPoint" />
          </mxGeometry>
        </mxCell>
        <mxCell id="2Su1z04QFh2XnTSSfZza-33" value="" style="endArrow=none;html=1;rounded=0;exitX=0.683;exitY=-0.05;exitDx=0;exitDy=0;exitPerimeter=0;" edge="1" parent="1" source="2Su1z04QFh2XnTSSfZza-29" target="2Su1z04QFh2XnTSSfZza-34">
          <mxGeometry width="50" height="50" relative="1" as="geometry">
            <mxPoint x="174" y="-190" as="sourcePoint" />
            <mxPoint x="172" y="-220" as="targetPoint" />
          </mxGeometry>
        </mxCell>
        <mxCell id="2Su1z04QFh2XnTSSfZza-34" value="id_producto&lt;div&gt;&lt;br&gt;&lt;/div&gt;" style="ellipse;whiteSpace=wrap;html=1;fontStyle=4" vertex="1" parent="1">
          <mxGeometry x="170" y="-250" width="110" height="40" as="geometry" />
        </mxCell>
        <mxCell id="2Su1z04QFh2XnTSSfZza-35" value="nombre" style="ellipse;whiteSpace=wrap;html=1;" vertex="1" parent="1">
          <mxGeometry x="60" y="-260" width="100" height="30" as="geometry" />
        </mxCell>
        <mxCell id="2Su1z04QFh2XnTSSfZza-36" value="descripcion" style="ellipse;whiteSpace=wrap;html=1;" vertex="1" parent="1">
          <mxGeometry x="-50" y="-250" width="100" height="40" as="geometry" />
        </mxCell>
        <mxCell id="2Su1z04QFh2XnTSSfZza-37" value="precio" style="ellipse;whiteSpace=wrap;html=1;" vertex="1" parent="1">
          <mxGeometry x="-90" y="-200" width="100" height="30" as="geometry" />
        </mxCell>
        <mxCell id="2Su1z04QFh2XnTSSfZza-38" value="stock" style="ellipse;whiteSpace=wrap;html=1;" vertex="1" parent="1">
          <mxGeometry x="-130" y="-180" width="90" height="40" as="geometry" />
        </mxCell>
        <mxCell id="2Su1z04QFh2XnTSSfZza-39" value="id categoria" style="ellipse;whiteSpace=wrap;html=1;fontStyle=4" vertex="1" parent="1">
          <mxGeometry x="-330" y="75" width="110" height="30" as="geometry" />
        </mxCell>
        <mxCell id="2Su1z04QFh2XnTSSfZza-40" value="tiene&amp;nbsp;" style="rhombus;whiteSpace=wrap;html=1;" vertex="1" parent="1">
          <mxGeometry x="-10" y="-50" width="80" height="80" as="geometry" />
        </mxCell>
        <mxCell id="2Su1z04QFh2XnTSSfZza-41" value="" style="endArrow=none;html=1;rounded=0;" edge="1" parent="1" source="2Su1z04QFh2XnTSSfZza-40" target="2Su1z04QFh2XnTSSfZza-29">
          <mxGeometry width="50" height="50" relative="1" as="geometry">
            <mxPoint x="390" y="20" as="sourcePoint" />
            <mxPoint x="440" y="-30" as="targetPoint" />
          </mxGeometry>
        </mxCell>
        <mxCell id="2Su1z04QFh2XnTSSfZza-42" value="" style="endArrow=none;html=1;rounded=0;entryX=0;entryY=1;entryDx=0;entryDy=0;exitX=1;exitY=0.5;exitDx=0;exitDy=0;" edge="1" parent="1" source="2Su1z04QFh2XnTSSfZza-43" target="2Su1z04QFh2XnTSSfZza-40">
          <mxGeometry width="50" height="50" relative="1" as="geometry">
            <mxPoint x="-90" y="20" as="sourcePoint" />
            <mxPoint x="-60" y="20" as="targetPoint" />
          </mxGeometry>
        </mxCell>
        <mxCell id="2Su1z04QFh2XnTSSfZza-43" value="categoria" style="rounded=0;whiteSpace=wrap;html=1;" vertex="1" parent="1">
          <mxGeometry x="-190" y="-20" width="120" height="60" as="geometry" />
        </mxCell>
        <mxCell id="2Su1z04QFh2XnTSSfZza-45" value="" style="endArrow=none;html=1;rounded=0;entryX=0.325;entryY=0.983;entryDx=0;entryDy=0;entryPerimeter=0;exitX=0.5;exitY=0;exitDx=0;exitDy=0;" edge="1" parent="1" source="2Su1z04QFh2XnTSSfZza-39" target="2Su1z04QFh2XnTSSfZza-43">
          <mxGeometry width="50" height="50" relative="1" as="geometry">
            <mxPoint x="390" y="20" as="sourcePoint" />
            <mxPoint x="440" y="-30" as="targetPoint" />
          </mxGeometry>
        </mxCell>
        <mxCell id="2Su1z04QFh2XnTSSfZza-46" value="nombre" style="ellipse;whiteSpace=wrap;html=1;" vertex="1" parent="1">
          <mxGeometry x="-230" y="90" width="110" height="30" as="geometry" />
        </mxCell>
        <mxCell id="2Su1z04QFh2XnTSSfZza-48" value="" style="endArrow=none;html=1;rounded=0;entryX=0.5;entryY=1;entryDx=0;entryDy=0;exitX=0.5;exitY=0;exitDx=0;exitDy=0;" edge="1" parent="1" source="2Su1z04QFh2XnTSSfZza-46" target="2Su1z04QFh2XnTSSfZza-43">
          <mxGeometry width="50" height="50" relative="1" as="geometry">
            <mxPoint x="390" y="20" as="sourcePoint" />
            <mxPoint x="440" y="-30" as="targetPoint" />
          </mxGeometry>
        </mxCell>
        <mxCell id="2Su1z04QFh2XnTSSfZza-49" value="descripciÃ³n" style="ellipse;whiteSpace=wrap;html=1;" vertex="1" parent="1">
          <mxGeometry x="-120" y="100" width="100" height="35" as="geometry" />
        </mxCell>
        <mxCell id="2Su1z04QFh2XnTSSfZza-50" value="" style="endArrow=none;html=1;rounded=0;entryX=0.817;entryY=0.983;entryDx=0;entryDy=0;entryPerimeter=0;exitX=0.44;exitY=-0.086;exitDx=0;exitDy=0;exitPerimeter=0;" edge="1" parent="1" source="2Su1z04QFh2XnTSSfZza-49" target="2Su1z04QFh2XnTSSfZza-43">
          <mxGeometry width="50" height="50" relative="1" as="geometry">
            <mxPoint x="-110" y="120" as="sourcePoint" />
            <mxPoint x="-60" y="70" as="targetPoint" />
          </mxGeometry>
        </mxCell>
        <mxCell id="2Su1z04QFh2XnTSSfZza-51" value="" style="endArrow=none;html=1;rounded=0;entryX=1;entryY=1;entryDx=0;entryDy=0;" edge="1" parent="1" source="2Su1z04QFh2XnTSSfZza-29" target="2Su1z04QFh2XnTSSfZza-38">
          <mxGeometry width="50" height="50" relative="1" as="geometry">
            <mxPoint x="390" y="20" as="sourcePoint" />
            <mxPoint x="440" y="-30" as="targetPoint" />
          </mxGeometry>
        </mxCell>
        <mxCell id="2Su1z04QFh2XnTSSfZza-52" value="" style="endArrow=none;html=1;rounded=0;exitX=0.25;exitY=0;exitDx=0;exitDy=0;" edge="1" parent="1" source="2Su1z04QFh2XnTSSfZza-29" target="2Su1z04QFh2XnTSSfZza-35">
          <mxGeometry width="50" height="50" relative="1" as="geometry">
            <mxPoint x="85" y="-160" as="sourcePoint" />
            <mxPoint x="135" y="-210" as="targetPoint" />
          </mxGeometry>
        </mxCell>
        <mxCell id="2Su1z04QFh2XnTSSfZza-53" value="" style="endArrow=none;html=1;rounded=0;entryX=1;entryY=1;entryDx=0;entryDy=0;exitX=0.067;exitY=-0.017;exitDx=0;exitDy=0;exitPerimeter=0;" edge="1" parent="1" source="2Su1z04QFh2XnTSSfZza-29" target="2Su1z04QFh2XnTSSfZza-36">
          <mxGeometry width="50" height="50" relative="1" as="geometry">
            <mxPoint x="30" y="-150" as="sourcePoint" />
            <mxPoint x="80" y="-200" as="targetPoint" />
          </mxGeometry>
        </mxCell>
        <mxCell id="2Su1z04QFh2XnTSSfZza-54" value="" style="endArrow=none;html=1;rounded=0;entryX=1;entryY=0.5;entryDx=0;entryDy=0;exitX=0;exitY=0.25;exitDx=0;exitDy=0;" edge="1" parent="1" source="2Su1z04QFh2XnTSSfZza-29" target="2Su1z04QFh2XnTSSfZza-37">
          <mxGeometry width="50" height="50" relative="1" as="geometry">
            <mxPoint x="20" y="-120" as="sourcePoint" />
            <mxPoint x="70" y="-170" as="targetPoint" />
          </mxGeometry>
        </mxCell>
        <mxCell id="2Su1z04QFh2XnTSSfZza-55" value="id categoria" style="ellipse;whiteSpace=wrap;html=1;fontStyle=4" vertex="1" parent="1">
          <mxGeometry x="-110" y="-120" width="110" height="30" as="geometry" />
        </mxCell>
        <mxCell id="2Su1z04QFh2XnTSSfZza-56" value="" style="endArrow=none;html=1;rounded=0;entryX=0;entryY=0.75;entryDx=0;entryDy=0;" edge="1" parent="1" source="2Su1z04QFh2XnTSSfZza-55" target="2Su1z04QFh2XnTSSfZza-29">
          <mxGeometry width="50" height="50" relative="1" as="geometry">
            <mxPoint x="370" y="20" as="sourcePoint" />
            <mxPoint x="420" y="-30" as="targetPoint" />
          </mxGeometry>
        </mxCell>
        <mxCell id="2Su1z04QFh2XnTSSfZza-57" value="" style="endArrow=none;html=1;rounded=0;exitX=0.5;exitY=0;exitDx=0;exitDy=0;" edge="1" parent="1" source="2Su1z04QFh2XnTSSfZza-90" target="2Su1z04QFh2XnTSSfZza-58">
          <mxGeometry width="50" height="50" relative="1" as="geometry">
            <mxPoint x="400" y="40" as="sourcePoint" />
            <mxPoint x="450" y="-10" as="targetPoint" />
          </mxGeometry>
        </mxCell>
        <mxCell id="2Su1z04QFh2XnTSSfZza-58" value="realiza" style="rhombus;whiteSpace=wrap;html=1;" vertex="1" parent="1">
          <mxGeometry x="430" y="-70" width="80" height="80" as="geometry" />
        </mxCell>
        <mxCell id="2Su1z04QFh2XnTSSfZza-61" value="pedidos" style="rounded=0;whiteSpace=wrap;html=1;" vertex="1" parent="1">
          <mxGeometry x="450" y="-240" width="120" height="60" as="geometry" />
        </mxCell>
        <mxCell id="2Su1z04QFh2XnTSSfZza-62" value="tiene&amp;nbsp;" style="rhombus;whiteSpace=wrap;html=1;" vertex="1" parent="1">
          <mxGeometry x="304" y="-240" width="80" height="80" as="geometry" />
        </mxCell>
        <mxCell id="2Su1z04QFh2XnTSSfZza-63" value="" style="endArrow=none;html=1;rounded=0;entryX=0;entryY=0.5;entryDx=0;entryDy=0;" edge="1" parent="1" source="2Su1z04QFh2XnTSSfZza-29" target="2Su1z04QFh2XnTSSfZza-62">
          <mxGeometry width="50" height="50" relative="1" as="geometry">
            <mxPoint x="270" y="-80" as="sourcePoint" />
            <mxPoint x="320" y="-130" as="targetPoint" />
          </mxGeometry>
        </mxCell>
        <mxCell id="2Su1z04QFh2XnTSSfZza-65" value="" style="endArrow=none;html=1;rounded=0;exitX=0.963;exitY=0.388;exitDx=0;exitDy=0;exitPerimeter=0;entryX=0;entryY=0.25;entryDx=0;entryDy=0;" edge="1" parent="1" source="2Su1z04QFh2XnTSSfZza-62" target="2Su1z04QFh2XnTSSfZza-61">
          <mxGeometry width="50" height="50" relative="1" as="geometry">
            <mxPoint x="420" y="-135" as="sourcePoint" />
            <mxPoint x="470" y="-185" as="targetPoint" />
          </mxGeometry>
        </mxCell>
        <mxCell id="2Su1z04QFh2XnTSSfZza-67" value="id_producto&lt;div&gt;&lt;br&gt;&lt;/div&gt;" style="ellipse;whiteSpace=wrap;html=1;fontStyle=4" vertex="1" parent="1">
          <mxGeometry x="377" y="-330" width="110" height="40" as="geometry" />
        </mxCell>
        <mxCell id="2Su1z04QFh2XnTSSfZza-68" value="id_pedidos" style="ellipse;whiteSpace=wrap;html=1;fontStyle=4" vertex="1" parent="1">
          <mxGeometry x="500" y="-335" width="110" height="45" as="geometry" />
        </mxCell>
        <mxCell id="2Su1z04QFh2XnTSSfZza-69" value="" style="endArrow=none;html=1;rounded=0;exitX=0.392;exitY=-0.017;exitDx=0;exitDy=0;exitPerimeter=0;" edge="1" parent="1" source="2Su1z04QFh2XnTSSfZza-61" target="2Su1z04QFh2XnTSSfZza-67">
          <mxGeometry width="50" height="50" relative="1" as="geometry">
            <mxPoint x="570" y="-190" as="sourcePoint" />
            <mxPoint x="620" y="-240" as="targetPoint" />
          </mxGeometry>
        </mxCell>
        <mxCell id="2Su1z04QFh2XnTSSfZza-70" value="" style="endArrow=none;html=1;rounded=0;entryX=0;entryY=1;entryDx=0;entryDy=0;exitX=0.75;exitY=0;exitDx=0;exitDy=0;" edge="1" parent="1" source="2Su1z04QFh2XnTSSfZza-61" target="2Su1z04QFh2XnTSSfZza-68">
          <mxGeometry width="50" height="50" relative="1" as="geometry">
            <mxPoint x="610" y="-177.5" as="sourcePoint" />
            <mxPoint x="660" y="-227.5" as="targetPoint" />
          </mxGeometry>
        </mxCell>
        <mxCell id="2Su1z04QFh2XnTSSfZza-73" value="" style="endArrow=none;html=1;rounded=0;" edge="1" parent="1" source="2Su1z04QFh2XnTSSfZza-61" target="2Su1z04QFh2XnTSSfZza-86">
          <mxGeometry width="50" height="50" relative="1" as="geometry">
            <mxPoint x="660" y="-120" as="sourcePoint" />
            <mxPoint x="627.3428496084734" y="-266.77879819764826" as="targetPoint" />
          </mxGeometry>
        </mxCell>
        <mxCell id="2Su1z04QFh2XnTSSfZza-74" value="" style="endArrow=none;html=1;rounded=0;entryX=1;entryY=0.75;entryDx=0;entryDy=0;" edge="1" parent="1" target="2Su1z04QFh2XnTSSfZza-61">
          <mxGeometry width="50" height="50" relative="1" as="geometry">
            <mxPoint x="654.9373787737413" y="-211.33411130264244" as="sourcePoint" />
            <mxPoint x="670" y="-110" as="targetPoint" />
          </mxGeometry>
        </mxCell>
        <mxCell id="2Su1z04QFh2XnTSSfZza-75" value="" style="endArrow=none;html=1;rounded=0;entryX=-0.033;entryY=0.4;entryDx=0;entryDy=0;entryPerimeter=0;" edge="1" parent="1" source="2Su1z04QFh2XnTSSfZza-58" target="2Su1z04QFh2XnTSSfZza-76">
          <mxGeometry width="50" height="50" relative="1" as="geometry">
            <mxPoint x="490" y="-40" as="sourcePoint" />
            <mxPoint x="560" y="-70" as="targetPoint" />
          </mxGeometry>
        </mxCell>
        <mxCell id="2Su1z04QFh2XnTSSfZza-76" value="pedido" style="rounded=0;whiteSpace=wrap;html=1;" vertex="1" parent="1">
          <mxGeometry x="540" y="-100" width="120" height="60" as="geometry" />
        </mxCell>
        <mxCell id="2Su1z04QFh2XnTSSfZza-81" value="&lt;u&gt;id_pedido&lt;/u&gt;" style="ellipse;whiteSpace=wrap;html=1;" vertex="1" parent="1">
          <mxGeometry x="717" y="-150" width="110" height="30" as="geometry" />
        </mxCell>
        <mxCell id="2Su1z04QFh2XnTSSfZza-82" value="" style="endArrow=none;html=1;rounded=0;exitX=0.825;exitY=0.017;exitDx=0;exitDy=0;exitPerimeter=0;entryX=0.009;entryY=0.267;entryDx=0;entryDy=0;entryPerimeter=0;" edge="1" parent="1" source="2Su1z04QFh2XnTSSfZza-76" target="2Su1z04QFh2XnTSSfZza-81">
          <mxGeometry width="50" height="50" relative="1" as="geometry">
            <mxPoint x="610" y="-100" as="sourcePoint" />
            <mxPoint x="660" y="-150" as="targetPoint" />
          </mxGeometry>
        </mxCell>
        <mxCell id="2Su1z04QFh2XnTSSfZza-83" value="" style="endArrow=none;html=1;rounded=0;entryX=0.055;entryY=0.333;entryDx=0;entryDy=0;entryPerimeter=0;" edge="1" parent="1" source="2Su1z04QFh2XnTSSfZza-76">
          <mxGeometry width="50" height="50" relative="1" as="geometry">
            <mxPoint x="700" y="-15" as="sourcePoint" />
            <mxPoint x="786.0500000000002" y="-87.5150000000001" as="targetPoint" />
          </mxGeometry>
        </mxCell>
        <mxCell id="2Su1z04QFh2XnTSSfZza-84" value="" style="endArrow=none;html=1;rounded=0;exitX=1;exitY=0.75;exitDx=0;exitDy=0;entryX=0.064;entryY=0.36;entryDx=0;entryDy=0;entryPerimeter=0;" edge="1" parent="1" source="2Su1z04QFh2XnTSSfZza-76" target="2Su1z04QFh2XnTSSfZza-87">
          <mxGeometry width="50" height="50" relative="1" as="geometry">
            <mxPoint x="710" y="20" as="sourcePoint" />
            <mxPoint x="799.284810313749" y="-31.119911004763708" as="targetPoint" />
          </mxGeometry>
        </mxCell>
        <mxCell id="2Su1z04QFh2XnTSSfZza-85" value="precio unitario" style="ellipse;whiteSpace=wrap;html=1;" vertex="1" parent="1">
          <mxGeometry x="650" y="-230" width="100" height="40" as="geometry" />
        </mxCell>
        <mxCell id="2Su1z04QFh2XnTSSfZza-86" value="cantidad" style="ellipse;whiteSpace=wrap;html=1;" vertex="1" parent="1">
          <mxGeometry x="630" y="-290" width="110" height="30" as="geometry" />
        </mxCell>
        <mxCell id="2Su1z04QFh2XnTSSfZza-87" value="fecha" style="ellipse;whiteSpace=wrap;html=1;" vertex="1" parent="1">
          <mxGeometry x="750" y="-60" width="90" height="40" as="geometry" />
        </mxCell>
        <mxCell id="2Su1z04QFh2XnTSSfZza-88" value="estado" style="ellipse;whiteSpace=wrap;html=1;" vertex="1" parent="1">
          <mxGeometry x="750" y="-110" width="100" height="40" as="geometry" />
        </mxCell>
        <mxCell id="2Su1z04QFh2XnTSSfZza-91" value="tiene&amp;nbsp;" style="rhombus;whiteSpace=wrap;html=1;" vertex="1" parent="1">
          <mxGeometry x="660" y="10" width="80" height="80" as="geometry" />
        </mxCell>
        <mxCell id="2Su1z04QFh2XnTSSfZza-92" value="pago" style="rounded=0;whiteSpace=wrap;html=1;" vertex="1" parent="1">
          <mxGeometry x="770" y="75" width="120" height="60" as="geometry" />
        </mxCell>
        <mxCell id="2Su1z04QFh2XnTSSfZza-93" value="" style="endArrow=none;html=1;rounded=0;entryX=0.5;entryY=1;entryDx=0;entryDy=0;" edge="1" parent="1" source="2Su1z04QFh2XnTSSfZza-91" target="2Su1z04QFh2XnTSSfZza-76">
          <mxGeometry width="50" height="50" relative="1" as="geometry">
            <mxPoint x="370" y="-80" as="sourcePoint" />
            <mxPoint x="420" y="-130" as="targetPoint" />
          </mxGeometry>
        </mxCell>
        <mxCell id="2Su1z04QFh2XnTSSfZza-94" value="" style="endArrow=none;html=1;rounded=0;entryX=1;entryY=0.5;entryDx=0;entryDy=0;exitX=0;exitY=0.25;exitDx=0;exitDy=0;" edge="1" parent="1" source="2Su1z04QFh2XnTSSfZza-92" target="2Su1z04QFh2XnTSSfZza-91">
          <mxGeometry width="50" height="50" relative="1" as="geometry">
            <mxPoint x="750" y="115" as="sourcePoint" />
            <mxPoint x="800" y="65" as="targetPoint" />
          </mxGeometry>
        </mxCell>
        <mxCell id="2Su1z04QFh2XnTSSfZza-95" value="" style="endArrow=none;html=1;rounded=0;" edge="1" parent="1" target="2Su1z04QFh2XnTSSfZza-96">
          <mxGeometry width="50" height="50" relative="1" as="geometry">
            <mxPoint x="860" y="80" as="sourcePoint" />
            <mxPoint x="910" y="30" as="targetPoint" />
          </mxGeometry>
        </mxCell>
        <mxCell id="2Su1z04QFh2XnTSSfZza-96" value="&lt;u&gt;id_pago&lt;/u&gt;" style="ellipse;whiteSpace=wrap;html=1;" vertex="1" parent="1">
          <mxGeometry x="920" y="-10" width="100" height="40" as="geometry" />
        </mxCell>
        <mxCell id="2Su1z04QFh2XnTSSfZza-97" value="monto" style="ellipse;whiteSpace=wrap;html=1;direction=south;" vertex="1" parent="1">
          <mxGeometry x="960" y="45" width="90" height="60" as="geometry" />
        </mxCell>
        <mxCell id="2Su1z04QFh2XnTSSfZza-98" value="&lt;u&gt;idmetodo&lt;/u&gt;" style="ellipse;whiteSpace=wrap;html=1;" vertex="1" parent="1">
          <mxGeometry x="810" y="315" width="110" height="50" as="geometry" />
        </mxCell>
        <mxCell id="2Su1z04QFh2XnTSSfZza-99" value="estado" style="ellipse;whiteSpace=wrap;html=1;" vertex="1" parent="1">
          <mxGeometry x="700" y="160" width="90" height="50" as="geometry" />
        </mxCell>
        <mxCell id="2Su1z04QFh2XnTSSfZza-100" value="fecha" style="ellipse;whiteSpace=wrap;html=1;" vertex="1" parent="1">
          <mxGeometry x="800" y="170" width="90" height="50" as="geometry" />
        </mxCell>
        <mxCell id="2Su1z04QFh2XnTSSfZza-102" value="" style="endArrow=none;html=1;rounded=0;entryX=0.975;entryY=0.867;entryDx=0;entryDy=0;entryPerimeter=0;" edge="1" parent="1" source="2Su1z04QFh2XnTSSfZza-121" target="2Su1z04QFh2XnTSSfZza-92">
          <mxGeometry width="50" height="50" relative="1" as="geometry">
            <mxPoint x="950" y="180" as="sourcePoint" />
            <mxPoint x="980" y="160" as="targetPoint" />
          </mxGeometry>
        </mxCell>
        <mxCell id="2Su1z04QFh2XnTSSfZza-103" value="" style="endArrow=none;html=1;rounded=0;exitX=1;exitY=0.5;exitDx=0;exitDy=0;" edge="1" parent="1" source="2Su1z04QFh2XnTSSfZza-92" target="2Su1z04QFh2XnTSSfZza-97">
          <mxGeometry width="50" height="50" relative="1" as="geometry">
            <mxPoint x="870" y="127.5" as="sourcePoint" />
            <mxPoint x="920" y="77.5" as="targetPoint" />
          </mxGeometry>
        </mxCell>
        <mxCell id="2Su1z04QFh2XnTSSfZza-104" value="tiene" style="rhombus;whiteSpace=wrap;html=1;" vertex="1" parent="1">
          <mxGeometry x="910" y="170" width="80" height="80" as="geometry" />
        </mxCell>
        <mxCell id="2Su1z04QFh2XnTSSfZza-105" value="" style="endArrow=none;html=1;rounded=0;entryX=1;entryY=1;entryDx=0;entryDy=0;exitX=0.433;exitY=-0.067;exitDx=0;exitDy=0;exitPerimeter=0;" edge="1" parent="1" source="2Su1z04QFh2XnTSSfZza-106" target="2Su1z04QFh2XnTSSfZza-104">
          <mxGeometry width="50" height="50" relative="1" as="geometry">
            <mxPoint x="1020" y="280" as="sourcePoint" />
            <mxPoint x="1045" y="220" as="targetPoint" />
          </mxGeometry>
        </mxCell>
        <mxCell id="2Su1z04QFh2XnTSSfZza-106" value="metodo" style="rounded=0;whiteSpace=wrap;html=1;" vertex="1" parent="1">
          <mxGeometry x="970" y="275" width="110" height="40" as="geometry" />
        </mxCell>
        <mxCell id="2Su1z04QFh2XnTSSfZza-107" value="N : N&amp;nbsp;" style="text;html=1;align=center;verticalAlign=middle;resizable=0;points=[];autosize=1;strokeColor=none;fillColor=none;" vertex="1" parent="1">
          <mxGeometry x="319" y="-270" width="50" height="30" as="geometry" />
        </mxCell>
        <mxCell id="2Su1z04QFh2XnTSSfZza-108" value="" style="endArrow=none;html=1;rounded=0;entryX=0;entryY=1;entryDx=0;entryDy=0;" edge="1" parent="1" source="2Su1z04QFh2XnTSSfZza-98" target="2Su1z04QFh2XnTSSfZza-106">
          <mxGeometry width="50" height="50" relative="1" as="geometry">
            <mxPoint x="910" y="390" as="sourcePoint" />
            <mxPoint x="960" y="340" as="targetPoint" />
          </mxGeometry>
        </mxCell>
        <mxCell id="2Su1z04QFh2XnTSSfZza-109" value="&lt;u&gt;idmetodo&lt;/u&gt;" style="ellipse;whiteSpace=wrap;html=1;" vertex="1" parent="1">
          <mxGeometry x="960" y="112.5" width="100" height="47.5" as="geometry" />
        </mxCell>
        <mxCell id="2Su1z04QFh2XnTSSfZza-112" value="" style="endArrow=none;html=1;rounded=0;exitX=0.5;exitY=0;exitDx=0;exitDy=0;" edge="1" parent="1" source="2Su1z04QFh2XnTSSfZza-99" target="2Su1z04QFh2XnTSSfZza-92">
          <mxGeometry width="50" height="50" relative="1" as="geometry">
            <mxPoint x="720" y="200" as="sourcePoint" />
            <mxPoint x="780" y="140" as="targetPoint" />
          </mxGeometry>
        </mxCell>
        <mxCell id="2Su1z04QFh2XnTSSfZza-113" value="" style="endArrow=none;html=1;rounded=0;exitX=0.5;exitY=0;exitDx=0;exitDy=0;" edge="1" parent="1" source="2Su1z04QFh2XnTSSfZza-100" target="2Su1z04QFh2XnTSSfZza-92">
          <mxGeometry width="50" height="50" relative="1" as="geometry">
            <mxPoint x="805" y="200" as="sourcePoint" />
            <mxPoint x="855" y="150" as="targetPoint" />
          </mxGeometry>
        </mxCell>
        <mxCell id="2Su1z04QFh2XnTSSfZza-114" value="empresa" style="ellipse;whiteSpace=wrap;html=1;" vertex="1" parent="1">
          <mxGeometry x="880" y="370" width="90" height="40" as="geometry" />
        </mxCell>
        <mxCell id="2Su1z04QFh2XnTSSfZza-115" value="direccion" style="ellipse;whiteSpace=wrap;html=1;" vertex="1" parent="1">
          <mxGeometry x="985" y="360" width="90" height="50" as="geometry" />
        </mxCell>
        <mxCell id="2Su1z04QFh2XnTSSfZza-116" value="" style="endArrow=none;html=1;rounded=0;exitX=1;exitY=0.75;exitDx=0;exitDy=0;" edge="1" parent="1" source="2Su1z04QFh2XnTSSfZza-92" target="2Su1z04QFh2XnTSSfZza-109">
          <mxGeometry width="50" height="50" relative="1" as="geometry">
            <mxPoint x="940" y="185" as="sourcePoint" />
            <mxPoint x="990" y="135" as="targetPoint" />
          </mxGeometry>
        </mxCell>
        <mxCell id="2Su1z04QFh2XnTSSfZza-118" value="" style="endArrow=none;html=1;rounded=0;exitX=0.589;exitY=0.125;exitDx=0;exitDy=0;exitPerimeter=0;" edge="1" parent="1" source="2Su1z04QFh2XnTSSfZza-114" target="2Su1z04QFh2XnTSSfZza-106">
          <mxGeometry width="50" height="50" relative="1" as="geometry">
            <mxPoint x="925" y="400" as="sourcePoint" />
            <mxPoint x="975" y="350" as="targetPoint" />
          </mxGeometry>
        </mxCell>
        <mxCell id="2Su1z04QFh2XnTSSfZza-120" value="" style="endArrow=none;html=1;rounded=0;exitX=0.5;exitY=0;exitDx=0;exitDy=0;" edge="1" parent="1" source="2Su1z04QFh2XnTSSfZza-115" target="2Su1z04QFh2XnTSSfZza-106">
          <mxGeometry width="50" height="50" relative="1" as="geometry">
            <mxPoint x="1000" y="400" as="sourcePoint" />
            <mxPoint x="1050" y="350" as="targetPoint" />
          </mxGeometry>
        </mxCell>
        <mxCell id="2Su1z04QFh2XnTSSfZza-122" value="" style="endArrow=none;html=1;rounded=0;entryX=0.917;entryY=1.017;entryDx=0;entryDy=0;entryPerimeter=0;" edge="1" parent="1" source="2Su1z04QFh2XnTSSfZza-104" target="2Su1z04QFh2XnTSSfZza-92">
          <mxGeometry width="50" height="50" relative="1" as="geometry">
            <mxPoint x="933" y="187" as="sourcePoint" />
            <mxPoint x="880" y="150" as="targetPoint" />
          </mxGeometry>
        </mxCell>
        <mxCell id="2Su1z04QFh2XnTSSfZza-121" value="" style="swimlane;startSize=0;" vertex="1" parent="1">
          <mxGeometry x="780" y="90" width="100" height="40" as="geometry" />
        </mxCell>
        <mxCell id="2Su1z04QFh2XnTSSfZza-125" value="N:N&amp;nbsp;" style="text;html=1;align=center;verticalAlign=middle;whiteSpace=wrap;rounded=0;" vertex="1" parent="1">
          <mxGeometry x="-20" y="-50" width="60" height="30" as="geometry" />
        </mxCell>
      </root>
    </mxGraphModel>
  </diagram>
</mxfile>
